<svg xmlns="http://www.w3.org/2000/svg" viewBox="0 0 128 128" role="img" aria-label="Gundam Universe favicon">
  <defs>
    <linearGradient id="bg" x1="0%" x2="100%" y1="0%" y2="100%">
      <stop offset="0%" stop-color="#08111f" />
      <stop offset="100%" stop-color="#020814" />
    </linearGradient>
    <linearGradient id="accent" x1="0%" x2="100%" y1="0%" y2="100%">
      <stop offset="0%" stop-color="#00e5ff" />
      <stop offset="100%" stop-color="#16f2b3" />
    </linearGradient>
  </defs>
  <rect width="128" height="128" rx="28" fill="url(#bg)" />
  <rect x="10" y="10" width="108" height="108" rx="22" fill="none" stroke="url(#accent)" stroke-width="4" opacity="0.85" />
  <path d="M34 34h28l-12 17c17 1 31 12 31 29 0 20-16 34-39 34-17 0-30-7-36-19l17-9c3 6 10 10 19 10 12 0 20-6 20-15 0-8-7-14-18-14h-8V52l10-18H34z" fill="url(#accent)" />
  <path d="M86 30l-8 16h10l-9 20" fill="none" stroke="#00e5ff" stroke-linecap="round" stroke-linejoin="round" stroke-width="6" />
</svg>
